<svg width="424" height="143" viewBox="0 0 424 143" fill="none" xmlns="http://www.w3.org/2000/svg">
<mask id="path-1-inside-1_25_442" fill="white">
<path d="M427 142.678C359.496 121.452 287.598 110 213 110C138.402 110 66.5044 121.452 -1 142.678V-35H427V142.678Z"/>
</mask>
<path d="M427 142.678L426.85 143.155L427.5 143.359V142.678H427ZM-1 142.678H-1.5V143.359L-0.850021 143.155L-1 142.678ZM-1 -35V-35.5H-1.5V-35H-1ZM427 -35H427.5V-35.5H427V-35ZM427 142.678L427.15 142.201C425.916 141.813 424.68 141.428 423.443 141.046L423.296 141.524L423.148 142.002C424.384 142.383 425.618 142.767 426.85 143.155L427 142.678ZM415.866 139.277L416.008 138.798C413.528 138.063 411.041 137.341 408.549 136.632L408.412 137.113L408.276 137.594C410.764 138.301 413.247 139.023 415.724 139.757L415.866 139.277ZM400.936 135.03L401.067 134.548C398.571 133.867 396.07 133.2 393.563 132.546L393.437 133.03L393.311 133.513C395.814 134.166 398.312 134.833 400.804 135.512L400.936 135.03ZM385.916 131.112L386.037 130.627C383.527 130.001 381.011 129.389 378.491 128.79L378.375 129.276L378.259 129.763C380.777 130.361 383.289 130.972 385.795 131.597L385.916 131.112ZM370.814 127.524L370.924 127.036C368.401 126.466 365.872 125.909 363.338 125.366L363.234 125.855L363.129 126.343C365.659 126.886 368.184 127.442 370.704 128.012L370.814 127.524ZM355.636 124.268L355.735 123.778C353.2 123.264 350.66 122.762 348.116 122.274L348.022 122.766L347.928 123.257C350.469 123.744 353.005 124.244 355.536 124.758L355.636 124.268ZM340.392 121.346L340.48 120.854C337.935 120.395 335.384 119.949 332.829 119.517L332.746 120.01L332.663 120.503C335.214 120.935 337.761 121.38 340.303 121.838L340.392 121.346ZM325.086 118.758L325.164 118.264C322.609 117.861 320.05 117.471 317.486 117.095L317.413 117.589L317.34 118.084C319.901 118.46 322.457 118.849 325.008 119.252L325.086 118.758ZM309.727 116.504L309.794 116.009C307.231 115.661 304.664 115.327 302.092 115.007L302.03 115.503L301.969 115.999C304.537 116.319 307.101 116.653 309.66 117L309.727 116.504ZM294.324 114.586L294.38 114.089C291.811 113.797 289.237 113.519 286.659 113.255L286.608 113.752L286.557 114.25C289.131 114.514 291.702 114.791 294.268 115.083L294.324 114.586ZM278.883 113.003L278.929 112.505C276.353 112.269 273.774 112.046 271.19 111.838L271.15 112.336L271.11 112.835C273.69 113.043 276.266 113.265 278.837 113.5L278.883 113.003ZM263.41 111.754L263.445 111.255C260.865 111.075 258.281 110.909 255.694 110.756L255.664 111.255L255.635 111.754C258.219 111.907 260.799 112.073 263.375 112.253L263.41 111.754ZM247.913 110.84L247.937 110.34C245.355 110.216 242.768 110.105 240.178 110.008L240.16 110.508L240.141 111.007C242.727 111.104 245.31 111.215 247.889 111.339L247.913 110.84ZM232.403 110.259L232.416 109.759C229.831 109.69 227.243 109.635 224.651 109.593L224.643 110.093L224.635 110.593C227.224 110.634 229.808 110.69 232.389 110.759L232.403 110.259ZM216.883 110.01L216.885 109.51C215.591 109.503 214.296 109.5 213 109.5V110V110.5C214.294 110.5 215.588 110.503 216.88 110.51L216.883 110.01ZM213 110V109.5C211.704 109.5 210.409 109.503 209.115 109.51L209.117 110.01L209.12 110.51C210.413 110.503 211.706 110.5 213 110.5V110ZM201.357 110.093L201.349 109.593C198.757 109.635 196.169 109.69 193.584 109.759L193.597 110.259L193.611 110.759C196.192 110.69 198.777 110.634 201.365 110.593L201.357 110.093ZM185.84 110.508L185.822 110.008C183.232 110.105 180.645 110.216 178.063 110.34L178.087 110.84L178.111 111.339C180.69 111.215 183.273 111.104 185.859 111.007L185.84 110.508ZM170.336 111.255L170.306 110.756C167.719 110.909 165.135 111.075 162.555 111.255L162.59 111.754L162.625 112.253C165.201 112.073 167.781 111.907 170.365 111.754L170.336 111.255ZM154.85 112.336L154.81 111.838C152.226 112.046 149.647 112.269 147.071 112.505L147.117 113.003L147.163 113.5C149.734 113.265 152.31 113.043 154.89 112.835L154.85 112.336ZM139.392 113.752L139.341 113.255C136.763 113.519 134.189 113.797 131.62 114.089L131.676 114.586L131.732 115.083C134.298 114.791 136.869 114.514 139.443 114.25L139.392 113.752ZM123.969 115.503L123.908 115.007C121.336 115.327 118.769 115.661 116.206 116.009L116.273 116.504L116.34 117C118.899 116.653 121.463 116.319 124.031 115.999L123.969 115.503ZM108.587 117.589L108.514 117.095C105.95 117.471 103.391 117.861 100.836 118.264L100.914 118.758L100.992 119.252C103.543 118.849 106.099 118.46 108.66 118.084L108.587 117.589ZM93.2539 120.01L93.1705 119.517C90.6155 119.949 88.0652 120.395 85.5197 120.854L85.6084 121.346L85.6972 121.838C88.2392 121.38 90.7859 120.935 93.3373 120.503L93.2539 120.01ZM77.9783 122.766L77.8841 122.274C75.3395 122.762 72.7997 123.264 70.2648 123.778L70.3643 124.268L70.4638 124.758C72.9951 124.244 75.5313 123.744 78.0724 123.257L77.9783 122.766ZM62.7664 125.855L62.6615 125.366C60.1279 125.909 57.5993 126.466 55.0759 127.036L55.1861 127.524L55.2964 128.012C57.8162 127.442 60.3412 126.886 62.8712 126.343L62.7664 125.855ZM47.6249 129.276L47.5094 128.79C44.9886 129.389 42.473 130.001 39.9627 130.627L40.0836 131.112L40.2045 131.597C42.7112 130.972 45.2232 130.361 47.7405 129.763L47.6249 129.276ZM32.5632 133.03L32.4369 132.546C29.9301 133.2 27.4287 133.867 24.9329 134.548L25.0644 135.03L25.1959 135.512C27.6882 134.833 30.1861 134.166 32.6894 133.513L32.5632 133.03ZM17.5876 137.113L17.4508 136.632C14.9588 137.341 12.4724 138.063 9.99167 138.798L10.1338 139.277L10.2759 139.757C12.753 139.023 15.2359 138.301 17.7244 137.594L17.5876 137.113ZM2.70438 141.524L2.55702 141.046C1.3199 141.428 0.0842245 141.813 -1.14998 142.201L-1 142.678L-0.850021 143.155C0.382435 142.767 1.61636 142.383 2.85173 142.002L2.70438 141.524ZM-1 142.678H-0.5V138.64H-1H-1.5V142.678H-1ZM-1 130.563H-0.5V122.487H-1H-1.5V130.563H-1ZM-1 114.411H-0.5V106.335H-1H-1.5V114.411H-1ZM-1 98.2583H-0.5V90.182H-1H-1.5V98.2583H-1ZM-1 82.1058H-0.5V74.0295H-1H-1.5V82.1058H-1ZM-1 65.9533H-0.5V57.877H-1H-1.5V65.9533H-1ZM-1 49.8007H-0.5V41.7245H-1H-1.5V49.8007H-1ZM-1 33.6482H-0.5V25.5719H-1H-1.5V33.6482H-1ZM-1 17.4957H-0.5V9.41942H-1H-1.5V17.4957H-1ZM-1 1.34316H-0.5V-6.7331H-1H-1.5V1.34316H-1ZM-1 -14.8094H-0.5V-22.8856H-1H-1.5V-14.8094H-1ZM-1 -30.9619H-0.5V-35H-1H-1.5V-30.9619H-1ZM-1 -35V-34.5H2.96296V-35V-35.5H-1V-35ZM10.8889 -35V-34.5H18.8148V-35V-35.5H10.8889V-35ZM26.7407 -35V-34.5H34.6667V-35V-35.5H26.7407V-35ZM42.5926 -35V-34.5H50.5185V-35V-35.5H42.5926V-35ZM58.4444 -35V-34.5H66.3704V-35V-35.5H58.4444V-35ZM74.2963 -35V-34.5H82.2222V-35V-35.5H74.2963V-35ZM90.1481 -35V-34.5H98.0741V-35V-35.5H90.1481V-35ZM106 -35V-34.5H113.926V-35V-35.5H106V-35ZM121.852 -35V-34.5H129.778V-35V-35.5H121.852V-35ZM137.704 -35V-34.5H145.63V-35V-35.5H137.704V-35ZM153.556 -35V-34.5H161.481V-35V-35.5H153.556V-35ZM169.407 -35V-34.5H177.333V-35V-35.5H169.407V-35ZM185.259 -35V-34.5H193.185V-35V-35.5H185.259V-35ZM201.111 -35V-34.5H209.037V-35V-35.5H201.111V-35ZM216.963 -35V-34.5H224.889V-35V-35.5H216.963V-35ZM232.815 -35V-34.5H240.741V-35V-35.5H232.815V-35ZM248.667 -35V-34.5H256.592V-35V-35.5H248.667V-35ZM264.518 -35V-34.5H272.444V-35V-35.5H264.518V-35ZM280.37 -35V-34.5H288.296V-35V-35.5H280.37V-35ZM296.222 -35V-34.5H304.148V-35V-35.5H296.222V-35ZM312.074 -35V-34.5H320V-35V-35.5H312.074V-35ZM327.926 -35V-34.5H335.852V-35V-35.5H327.926V-35ZM343.778 -35V-34.5H351.704V-35V-35.5H343.778V-35ZM359.63 -35V-34.5H367.556V-35V-35.5H359.63V-35ZM375.481 -35V-34.5H383.407V-35V-35.5H375.481V-35ZM391.333 -35V-34.5H399.259V-35V-35.5H391.333V-35ZM407.185 -35V-34.5H415.111V-35V-35.5H407.185V-35ZM423.037 -35V-34.5H427V-35V-35.5H423.037V-35ZM427 -35H426.5V-30.9619H427H427.5V-35H427ZM427 -22.8856H426.5V-14.8093H427H427.5V-22.8856H427ZM427 -6.73309H426.5V1.34317H427H427.5V-6.73309H427ZM427 9.41943H426.5V17.4957H427H427.5V9.41943H427ZM427 25.5719H426.5V33.6482H427H427.5V25.5719H427ZM427 41.7245H426.5V49.8007H427H427.5V41.7245H427ZM427 57.877H426.5V65.9533H427H427.5V57.877H427ZM427 74.0295H426.5V82.1058H427H427.5V74.0295H427ZM427 90.182H426.5V98.2583H427H427.5V90.182H427ZM427 106.335H426.5V114.411H427H427.5V106.335H427ZM427 122.487H426.5V130.563H427H427.5V122.487H427ZM427 138.64H426.5V142.678H427H427.5V138.64H427ZM427 142.678L426.7 143.632L428 144.04V142.678H427ZM-1 142.678H-2V144.04L-0.700042 143.632L-1 142.678ZM-1 -35V-36H-2V-35H-1ZM427 -35H428V-36H427V-35ZM427 142.678L427.3 141.724C426.065 141.335 424.828 140.95 423.59 140.569L423.296 141.524L423.001 142.48C424.235 142.86 425.468 143.244 426.7 143.632L427 142.678ZM415.866 139.277L416.15 138.319C413.668 137.583 411.18 136.86 408.686 136.151L408.412 137.113L408.139 138.074C410.626 138.782 413.107 139.503 415.582 140.236L415.866 139.277ZM400.936 135.03L401.199 134.065C398.701 133.384 396.198 132.716 393.689 132.062L393.437 133.03L393.184 133.997C395.686 134.65 398.182 135.316 400.673 135.995L400.936 135.03ZM385.916 131.112L386.158 130.141C383.646 129.515 381.129 128.903 378.606 128.304L378.375 129.276L378.144 130.249C380.659 130.847 383.17 131.458 385.675 132.082L385.916 131.112ZM370.814 127.524L371.034 126.549C368.509 125.978 365.979 125.421 363.443 124.877L363.234 125.855L363.024 126.832C365.552 127.375 368.075 127.93 370.593 128.499L370.814 127.524ZM355.636 124.268L355.835 123.288C353.298 122.773 350.756 122.272 348.21 121.783L348.022 122.766L347.833 123.748C350.373 124.234 352.907 124.735 355.437 125.248L355.636 124.268ZM340.392 121.346L340.569 120.362C338.022 119.903 335.47 119.457 332.913 119.024L332.746 120.01L332.579 120.996C335.129 121.427 337.674 121.872 340.214 122.33L340.392 121.346ZM325.086 118.758L325.242 117.77C322.685 117.366 320.124 116.976 317.558 116.6L317.413 117.589L317.268 118.579C319.826 118.954 322.381 119.343 324.93 119.746L325.086 118.758ZM309.727 116.504L309.862 115.513C307.297 115.166 304.728 114.831 302.154 114.511L302.03 115.503L301.907 116.496C304.473 116.815 307.035 117.148 309.593 117.495L309.727 116.504ZM294.324 114.586L294.437 113.592C291.865 113.3 289.29 113.022 286.71 112.758L286.608 113.752L286.506 114.747C289.078 115.011 291.647 115.288 294.211 115.58L294.324 114.586ZM278.883 113.003L278.974 112.007C276.397 111.771 273.816 111.548 271.231 111.34L271.15 112.336L271.07 113.333C273.648 113.541 276.222 113.763 278.792 113.998L278.883 113.003ZM263.41 111.754L263.48 110.756C260.898 110.576 258.313 110.41 255.723 110.257L255.664 111.255L255.606 112.253C258.188 112.406 260.766 112.572 263.341 112.751L263.41 111.754ZM247.913 110.84L247.962 109.841C245.377 109.716 242.789 109.605 240.197 109.508L240.16 110.508L240.122 111.507C242.707 111.604 245.288 111.714 247.865 111.838L247.913 110.84ZM232.403 110.259L232.429 109.259C229.843 109.19 227.253 109.135 224.659 109.093L224.643 110.093L224.627 111.093C227.214 111.134 229.797 111.19 232.376 111.258L232.403 110.259ZM216.883 110.01L216.888 109.01C215.593 109.003 214.297 109 213 109V110V111C214.293 111 215.586 111.003 216.877 111.01L216.883 110.01ZM213 110V109C211.703 109 210.407 109.003 209.112 109.01L209.117 110.01L209.123 111.01C210.414 111.003 211.707 111 213 111V110ZM201.357 110.093L201.341 109.093C198.747 109.135 196.157 109.19 193.571 109.259L193.597 110.259L193.624 111.258C196.203 111.19 198.786 111.134 201.373 111.093L201.357 110.093ZM185.84 110.508L185.803 109.508C183.211 109.605 180.623 109.716 178.038 109.841L178.087 110.84L178.135 111.838C180.712 111.714 183.293 111.604 185.878 111.507L185.84 110.508ZM170.336 111.255L170.277 110.257C167.687 110.41 165.102 110.576 162.52 110.756L162.59 111.754L162.659 112.751C165.234 112.572 167.812 112.406 170.394 112.253L170.336 111.255ZM154.85 112.336L154.769 111.34C152.184 111.548 149.603 111.771 147.026 112.007L147.117 113.003L147.208 113.998C149.778 113.763 152.352 113.541 154.93 113.333L154.85 112.336ZM139.392 113.752L139.29 112.758C136.71 113.022 134.135 113.3 131.563 113.592L131.676 114.586L131.789 115.58C134.353 115.288 136.921 115.011 139.494 114.747L139.392 113.752ZM123.969 115.503L123.846 114.511C121.272 114.831 118.703 115.166 116.138 115.513L116.273 116.504L116.407 117.495C118.965 117.148 121.527 116.815 124.093 116.496L123.969 115.503ZM108.587 117.589L108.442 116.6C105.876 116.976 103.315 117.366 100.758 117.77L100.914 118.758L101.07 119.746C103.619 119.343 106.174 118.954 108.732 118.579L108.587 117.589ZM93.2539 120.01L93.0872 119.024C90.5304 119.457 87.9783 119.903 85.4309 120.362L85.6084 121.346L85.7859 122.33C88.3261 121.872 90.871 121.427 93.4206 120.996L93.2539 120.01ZM77.9783 122.766L77.79 121.783C75.2435 122.272 72.7019 122.773 70.1653 123.288L70.3643 124.268L70.5633 125.248C73.0928 124.735 75.6272 124.234 78.1665 123.748L77.9783 122.766ZM62.7664 125.855L62.5566 124.877C60.0212 125.421 57.4909 125.978 54.9657 126.549L55.1861 127.524L55.4066 128.499C57.9247 127.93 60.4478 127.375 62.9761 126.832L62.7664 125.855ZM47.6249 129.276L47.3938 128.304C44.8712 128.903 42.3539 129.515 39.8418 130.141L40.0836 131.112L40.3254 132.082C42.8303 131.458 45.3406 130.847 47.8561 130.249L47.6249 129.276ZM32.5632 133.03L32.3107 132.062C29.8021 132.716 27.299 133.384 24.8013 134.065L25.0644 135.03L25.3274 135.995C27.818 135.316 30.3141 134.65 32.8156 133.997L32.5632 133.03ZM17.5876 137.113L17.314 136.151C14.8202 136.86 12.332 137.583 9.84958 138.319L10.1338 139.277L10.418 140.236C12.8934 139.503 15.3745 138.782 17.8612 138.074L17.5876 137.113ZM2.70438 141.524L2.40967 140.569C1.17166 140.95 -0.0648808 141.335 -1.29996 141.724L-1 142.678L-0.700042 143.632C0.53154 143.244 1.76459 142.86 2.99909 142.48L2.70438 141.524ZM-1 142.678H0V138.64H-1H-2V142.678H-1ZM-1 130.563H0V122.487H-1H-2V130.563H-1ZM-1 114.411H0V106.335H-1H-2V114.411H-1ZM-1 98.2583H0V90.182H-1H-2V98.2583H-1ZM-1 82.1058H0V74.0295H-1H-2V82.1058H-1ZM-1 65.9533H0V57.877H-1H-2V65.9533H-1ZM-1 49.8007H0V41.7245H-1H-2V49.8007H-1ZM-1 33.6482H0V25.5719H-1H-2V33.6482H-1ZM-1 17.4957H0V9.41942H-1H-2V17.4957H-1ZM-1 1.34316H0V-6.7331H-1H-2V1.34316H-1ZM-1 -14.8094H0V-22.8856H-1H-2V-14.8094H-1ZM-1 -30.9619H0V-35H-1H-2V-30.9619H-1ZM-1 -35V-34H2.96296V-35V-36H-1V-35ZM10.8889 -35V-34H18.8148V-35V-36H10.8889V-35ZM26.7407 -35V-34H34.6667V-35V-36H26.7407V-35ZM42.5926 -35V-34H50.5185V-35V-36H42.5926V-35ZM58.4444 -35V-34H66.3704V-35V-36H58.4444V-35ZM74.2963 -35V-34H82.2222V-35V-36H74.2963V-35ZM90.1481 -35V-34H98.0741V-35V-36H90.1481V-35ZM106 -35V-34H113.926V-35V-36H106V-35ZM121.852 -35V-34H129.778V-35V-36H121.852V-35ZM137.704 -35V-34H145.63V-35V-36H137.704V-35ZM153.556 -35V-34H161.481V-35V-36H153.556V-35ZM169.407 -35V-34H177.333V-35V-36H169.407V-35ZM185.259 -35V-34H193.185V-35V-36H185.259V-35ZM201.111 -35V-34H209.037V-35V-36H201.111V-35ZM216.963 -35V-34H224.889V-35V-36H216.963V-35ZM232.815 -35V-34H240.741V-35V-36H232.815V-35ZM248.667 -35V-34H256.592V-35V-36H248.667V-35ZM264.518 -35V-34H272.444V-35V-36H264.518V-35ZM280.37 -35V-34H288.296V-35V-36H280.37V-35ZM296.222 -35V-34H304.148V-35V-36H296.222V-35ZM312.074 -35V-34H320V-35V-36H312.074V-35ZM327.926 -35V-34H335.852V-35V-36H327.926V-35ZM343.778 -35V-34H351.704V-35V-36H343.778V-35ZM359.63 -35V-34H367.556V-35V-36H359.63V-35ZM375.481 -35V-34H383.407V-35V-36H375.481V-35ZM391.333 -35V-34H399.259V-35V-36H391.333V-35ZM407.185 -35V-34H415.111V-35V-36H407.185V-35ZM423.037 -35V-34H427V-35V-36H423.037V-35ZM427 -35H426V-30.9619H427H428V-35H427ZM427 -22.8856H426V-14.8093H427H428V-22.8856H427ZM427 -6.73309H426V1.34317H427H428V-6.73309H427ZM427 9.41943H426V17.4957H427H428V9.41943H427ZM427 25.5719H426V33.6482H427H428V25.5719H427ZM427 41.7245H426V49.8007H427H428V41.7245H427ZM427 57.877H426V65.9533H427H428V57.877H427ZM427 74.0295H426V82.1058H427H428V74.0295H427ZM427 90.182H426V98.2583H427H428V90.182H427ZM427 106.335H426V114.411H427H428V106.335H427ZM427 122.487H426V130.563H427H428V122.487H427ZM427 138.64H426V142.678H427H428V138.64H427Z" fill="black" mask="url(#path-1-inside-1_25_442)"/>
</svg>
