<svg width="6" height="103" viewBox="0 0 6 103" fill="none" xmlns="http://www.w3.org/2000/svg">
<path d="M2.66675 -4.07696e-05C1.19399 -4.0834e-05 8.13651e-05 1.19387 8.13007e-05 2.66663C8.12364e-05 4.13939 1.19399 5.33329 2.66675 5.33329C4.13951 5.33329 5.33341 4.13939 5.33341 2.66663C5.33341 1.19387 4.13951 -4.07052e-05 2.66675 -4.07696e-05ZM2.66675 2.66663L2.16675 2.66663L2.16675 11L2.66675 11L3.16675 11L3.16675 2.66663L2.66675 2.66663ZM2.66675 27.6666L2.16675 27.6666L2.16675 44.3333L2.66675 44.3333L3.16675 44.3333L3.16675 27.6666L2.66675 27.6666ZM2.66675 61L2.16675 61L2.16674 77.6666L2.66674 77.6666L3.16674 77.6666L3.16675 61L2.66675 61ZM2.66674 94.3333L2.16674 94.3333L2.16674 102.667L2.66674 102.667L3.16674 102.667L3.16674 94.3333L2.66674 94.3333Z" fill="black"/>
</svg>
